HIERARCHY
ROOT Root
{
  OFFSET 0.0 0.0 0.0
  CHANNELS 6 Xposition Yposition Zposition Zrotation Yrotation Xrotation
  JOINT Hips
  {
    OFFSET 0.0 100.0 0.0
    CHANNELS 6 Xposition Yposition Zposition Zrotation Yrotation Xrotation
    JOINT Spine1
    {
      OFFSET 5.003913 -0.037094 -0.013727
      CHANNELS 3 Zrotation Yrotation Xrotation
      JOINT Spine2
      {
        OFFSET 7.125363 -1e-06 0.0
        CHANNELS 3 Zrotation Yrotation Xrotation
        JOINT Chest
        {
          OFFSET 7.594027 1e-06 0.0
          CHANNELS 3 Zrotation Yrotation Xrotation
          JOINT Neck1
          {
            OFFSET 26.313086 -0.460272 -0.181672
            CHANNELS 3 Zrotation Yrotation Xrotation
            JOINT Neck2
            {
              OFFSET 8.045911 0.0 0.0
              CHANNELS 3 Zrotation Yrotation Xrotation
              JOINT Head
              {
                OFFSET 6.432774 0.0 0.0
                CHANNELS 3 Zrotation Yrotation Xrotation
                JOINT HeadEnd
                {
                  OFFSET 16.169773 0.06451 0.00362
                  CHANNELS 3 Zrotation Yrotation Xrotation
                }
                JOINT Jaw
                {
                  OFFSET 0.108741 3.12938 0.002639
                  CHANNELS 3 Zrotation Yrotation Xrotation
                }
                JOINT LeftEye
                {
                  OFFSET 4.45173 8.166359 3.206392
                  CHANNELS 3 Zrotation Yrotation Xrotation
                }
                JOINT RightEye
                {
                  OFFSET 4.436895 8.135758 -3.222429
                  CHANNELS 3 Zrotation Yrotation Xrotation
                }
              }
            }
          }
          JOINT LeftShoulder
          {
            OFFSET 23.218927 5.195579 1.621656
            CHANNELS 3 Zrotation Yrotation Xrotation
            JOINT LeftArm
            {
              OFFSET 15.902118 2e-06 -2e-06
              CHANNELS 3 Zrotation Yrotation Xrotation
              JOINT LeftForeArm
              {
                OFFSET 28.739307 0.0 -1e-06
                CHANNELS 3 Zrotation Yrotation Xrotation
                JOINT LeftHand
                {
                  OFFSET 27.093981 -4e-06 0.0
                  CHANNELS 3 Zrotation Yrotation Xrotation
                  JOINT LeftHandThumb1
                  {
                    OFFSET 2.276781 3.380274 0.83384
                    CHANNELS 3 Zrotation Yrotation Xrotation
                    JOINT LeftHandThumb2
                    {
                      OFFSET 4.705309 -1e-06 -1e-06
                      CHANNELS 3 Zrotation Yrotation Xrotation
                      JOINT LeftHandThumb3
                      {
                        OFFSET 2.798515 0.0 3e-06
                        CHANNELS 3 Zrotation Yrotation Xrotation
                        JOINT LeftHandThumbEnd
                        {
                          OFFSET 3.180793 4e-06 -4e-06
                          CHANNELS 3 Zrotation Yrotation Xrotation
                        }
                      }
                    }
                  }
                  JOINT LeftHandIndex1
                  {
                    OFFSET 3.247786 2.352677 0.137192
                    CHANNELS 3 Zrotation Yrotation Xrotation
                    JOINT LeftHandIndex2
                    {
                      OFFSET 6.367095 1e-06 0.0
                      CHANNELS 3 Zrotation Yrotation Xrotation
                      JOINT LeftHandIndex3
                      {
                        OFFSET 3.662364 0.0 0.0
                        CHANNELS 3 Zrotation Yrotation Xrotation
                        JOINT LeftHandIndex4
                        {
                          OFFSET 2.329242 4e-06 -4e-06
                          CHANNELS 3 Zrotation Yrotation Xrotation
                          JOINT LeftHandIndexEnd
                          {
                            OFFSET 2.767823 1e-06 0.0
                            CHANNELS 3 Zrotation Yrotation Xrotation
                          }
                        }
                      }
                    }
                  }
                  JOINT LeftHandMiddle1
                  {
                    OFFSET 3.163612 0.945023 -0.406112
                    CHANNELS 3 Zrotation Yrotation Xrotation
                    JOINT LeftHandMiddle2
                    {
                      OFFSET 6.276789 3e-06 0.0
                      CHANNELS 3 Zrotation Yrotation Xrotation
                      JOINT LeftHandMiddle3
                      {
                        OFFSET 4.35652 -1e-06 4e-06
                        CHANNELS 3 Zrotation Yrotation Xrotation
                        JOINT LeftHandMiddle4
                        {
                          OFFSET 2.996877 0.0 8e-06
                          CHANNELS 3 Zrotation Yrotation Xrotation
                          JOINT LeftHandMiddleEnd
                          {
                            OFFSET 2.323256 3e-06 -4e-06
                            CHANNELS 3 Zrotation Yrotation Xrotation
                          }
                        }
                      }
                    }
                  }
                  JOINT LeftHandRing1
                  {
                    OFFSET 2.882606 -0.309162 0.107445
                    CHANNELS 3 Zrotation Yrotation Xrotation
                    JOINT LeftHandRing2
                    {
                      OFFSET 6.033198 0.0 4e-06
                      CHANNELS 3 Zrotation Yrotation Xrotation
                      JOINT LeftHandRing3
                      {
                        OFFSET 4.350578 3e-06 0.0
                        CHANNELS 3 Zrotation Yrotation Xrotation
                        JOINT LeftHandRing4
                        {
                          OFFSET 2.651321 2e-06 -7e-06
                          CHANNELS 3 Zrotation Yrotation Xrotation
                          JOINT LeftHandRingEnd
                          {
                            OFFSET 1.937663 1e-06 -4e-06
                            CHANNELS 3 Zrotation Yrotation Xrotation
                          }
                        }
                      }
                    }
                  }
                  JOINT LeftHandPinky1
                  {
                    OFFSET 2.865315 -1.525436 0.575687
                    CHANNELS 3 Zrotation Yrotation Xrotation
                    JOINT LeftHandPinky2
                    {
                      OFFSET 5.54936 1e-06 -8e-06
                      CHANNELS 3 Zrotation Yrotation Xrotation
                      JOINT LeftHandPinky3
                      {
                        OFFSET 3.070974 0.0 -4e-06
                        CHANNELS 3 Zrotation Yrotation Xrotation
                        JOINT LeftHandPinky4
                        {
                          OFFSET 1.549672 1e-06 0.0
                          CHANNELS 3 Zrotation Yrotation Xrotation
                          JOINT LeftHandPinkyEnd
                          {
                            OFFSET 1.952123 0.0 0.0
                            CHANNELS 3 Zrotation Yrotation Xrotation
                          }
                        }
                      }
                    }
                  }
                }
              }
            }
          }
          JOINT RightShoulder
          {
            OFFSET 23.161716 5.296122 -1.380114
            CHANNELS 3 Zrotation Yrotation Xrotation
            JOINT RightArm
            {
              OFFSET -16.027195 -2e-06 1.1e-05
              CHANNELS 3 Zrotation Yrotation Xrotation
              JOINT RightForeArm
              {
                OFFSET -28.736639 4e-06 2e-06
                CHANNELS 3 Zrotation Yrotation Xrotation
                JOINT RightHand
                {
                  OFFSET -27.133619 6e-06 0.0
                  CHANNELS 3 Zrotation Yrotation Xrotation
                  JOINT RightHandThumb1
                  {
                    OFFSET -2.274328 -3.351035 -0.83067
                    CHANNELS 3 Zrotation Yrotation Xrotation
                    JOINT RightHandThumb2
                    {
                      OFFSET -4.703594 -3e-06 2e-06
                      CHANNELS 3 Zrotation Yrotation Xrotation
                      JOINT RightHandThumb3
                      {
                        OFFSET -2.794935 -4e-06 -3e-06
                        CHANNELS 3 Zrotation Yrotation Xrotation
                        JOINT RightHandThumbEnd
                        {
                          OFFSET -3.183852 4e-06 1e-06
                          CHANNELS 3 Zrotation Yrotation Xrotation
                        }
                      }
                    }
                  }
                  JOINT RightHandIndex1
                  {
                    OFFSET -3.253496 -2.33755 -0.127667
                    CHANNELS 3 Zrotation Yrotation Xrotation
                    JOINT RightHandIndex2
                    {
                      OFFSET -6.344434 0.0 0.0
                      CHANNELS 3 Zrotation Yrotation Xrotation
                      JOINT RightHandIndex3
                      {
                        OFFSET -3.654871 0.0 -8e-06
                        CHANNELS 3 Zrotation Yrotation Xrotation
                        JOINT RightHandIndex4
                        {
                          OFFSET -2.327586 -1e-06 0.0
                          CHANNELS 3 Zrotation Yrotation Xrotation
                          JOINT RightHandIndexEnd
                          {
                            OFFSET -2.770001 3e-06 8e-06
                            CHANNELS 3 Zrotation Yrotation Xrotation
                          }
                        }
                      }
                    }
                  }
                  JOINT RightHandMiddle1
                  {
                    OFFSET -3.168223 -0.944764 0.411762
                    CHANNELS 3 Zrotation Yrotation Xrotation
                    JOINT RightHandMiddle2
                    {
                      OFFSET -6.266691 -1e-06 -4e-06
                      CHANNELS 3 Zrotation Yrotation Xrotation
                      JOINT RightHandMiddle3
                      {
                        OFFSET -4.348901 0.0 0.0
                        CHANNELS 3 Zrotation Yrotation Xrotation
                        JOINT RightHandMiddle4
                        {
                          OFFSET -3.00024 2e-06 -4e-06
                          CHANNELS 3 Zrotation Yrotation Xrotation
                          JOINT RightHandMiddleEnd
                          {
                            OFFSET -2.321477 -4e-06 -4e-06
                            CHANNELS 3 Zrotation Yrotation Xrotation
                          }
                        }
                      }
                    }
                  }
                  JOINT RightHandRing1
                  {
                    OFFSET -2.885654 0.293261 -0.119232
                    CHANNELS 3 Zrotation Yrotation Xrotation
                    JOINT RightHandRing2
                    {
                      OFFSET -6.032835 -1e-06 -4e-06
                      CHANNELS 3 Zrotation Yrotation Xrotation
                      JOINT RightHandRing3
                      {
                        OFFSET -4.33881 0.0 -4e-06
                        CHANNELS 3 Zrotation Yrotation Xrotation
                        JOINT RightHandRing4
                        {
                          OFFSET -2.654903 -4e-06 -4e-06
                          CHANNELS 3 Zrotation Yrotation Xrotation
                          JOINT RightHandRingEnd
                          {
                            OFFSET -1.935122 0.0 4e-06
                            CHANNELS 3 Zrotation Yrotation Xrotation
                          }
                        }
                      }
                    }
                  }
                  JOINT RightHandPinky1
                  {
                    OFFSET -2.866241 1.503904 -0.60527
                    CHANNELS 3 Zrotation Yrotation Xrotation
                    JOINT RightHandPinky2
                    {
                      OFFSET -5.553177 -2e-06 0.0
                      CHANNELS 3 Zrotation Yrotation Xrotation
                      JOINT RightHandPinky3
                      {
                        OFFSET -3.062664 -1e-06 -4e-06
                        CHANNELS 3 Zrotation Yrotation Xrotation
                        JOINT RightHandPinky4
                        {
                          OFFSET -1.546529 2e-06 4e-06
                          CHANNELS 3 Zrotation Yrotation Xrotation
                          JOINT RightHandPinkyEnd
                          {
                            OFFSET -1.952341 0.0 -4e-06
                            CHANNELS 3 Zrotation Yrotation Xrotation
                          }
                        }
                      }
                    }
                  }
                }
              }
            }
          }
        }
      }
    }
    JOINT LeftLeg
    {
      OFFSET -8.443107 2.567604 10.043214
      CHANNELS 3 Zrotation Yrotation Xrotation
      JOINT LeftShin
      {
        OFFSET 43.229198 1e-06 -1e-06
        CHANNELS 3 Zrotation Yrotation Xrotation
        JOINT LeftFoot
        {
          OFFSET 42.298611 1e-06 1e-06
          CHANNELS 3 Zrotation Yrotation Xrotation
          JOINT LeftToeBase
          {
            OFFSET 14.165858 1e-06 0.0
            CHANNELS 3 Zrotation Yrotation Xrotation
            JOINT LeftToeEnd
            {
              OFFSET 6.7141 -0.234461 0.0
              CHANNELS 3 Zrotation Yrotation Xrotation
            }
          }
        }
      }
    }
    JOINT RightLeg
    {
      OFFSET -8.303923 2.592729 -10.047278
      CHANNELS 3 Zrotation Yrotation Xrotation
      JOINT RightShin
      {
        OFFSET -43.369682 0.0 1e-06
        CHANNELS 3 Zrotation Yrotation Xrotation
        JOINT RightFoot
        {
          OFFSET -42.260784 4e-06 2e-06
          CHANNELS 3 Zrotation Yrotation Xrotation
          JOINT RightToeBase
          {
            OFFSET -14.222245 -2e-06 -1e-06
            CHANNELS 3 Zrotation Yrotation Xrotation
            JOINT RightToeEnd
            {
              OFFSET -6.660062 0.232574 -2e-06
              CHANNELS 3 Zrotation Yrotation Xrotation
            }
          }
        }
      }
    }
  }
}
MOTION
Frames: 4
Frame Time: 0.03333333333333333
0.0 0.0 0.0 0.0 -0.0 0.0 0.094706 100.137016 -0.053632 91.45282 1.330138 89.849991 -6.669496 0.175558 -0.067329 -13.473504 -0.711099 -0.452465 21.8519 -0.861829 -2.640255 13.042169 -3.033307 2.475209 -2.539875 -0.606013 -0.603411 -23.842386 1.447029 -3.625129 1.7e-05 0.000108 0.000945 -0.123549 0.01715 0.11564 -0.089599 0.092827 0.092259 -0.045195 -0.07032 0.13769 -118.631195 -70.076706 135.413559 41.098354 -49.791714 13.965805 42.89069 0.537212 0.365526 -2.785368 1.549562 5.642036 17.643644 -26.324614 52.411118 -19.415524 -14.378822 29.370152 0.008438 -8.758536 -0.004871 15.700153 -18.17454 6.200985 -0.61596 -1.791665 -3.86003 -4.805726 -11.048872 -2.932751 -0.015489 -20.971703 0.005574 -5.025069 -25.027706 -4.017842 0.007253 0.005601 -0.01088 -10.62841 -5.687063 -3.530211 10.555755 -17.920708 -3.110632 -0.014009 -13.840047 0.00904 -0.510471 -31.209177 -4.035938 -11.882896 -59.243237 7.891073 -13.973298 -7.145551 -2.869901 13.739574 -8.406696 -3.195918 0.30526 -34.227459 0.778361 -0.966293 -17.757853 2.614761 -0.007409 0.0 0.001127 -17.341257 -20.087965 -4.195996 21.719442 -1.641801 3.886873 -0.006376 -6.336248 -0.002759 -1.718493 -22.597015 -6.179743 0.005452 -0.000943 -0.000171 67.235085 -76.002991 128.284485 59.05584 -58.872337 8.049397 22.30195 -0.221763 0.02059 -0.73758 -1.590415 2.59841 22.162935 -20.358355 49.91066 -16.669718 -16.726789 28.441832 0.002687 -12.690145 0.004623 16.346617 -17.822142 2.41574 -0.115551 -1.520335 -4.267646 -5.031743 -5.606184 -2.943372 0.005202 -11.010489 -0.022094 -6.110854 -15.877789 -3.811474 -0.006182 0.005318 0.008811 -10.280992 -5.685016 -4.317469 11.014789 -11.282742 -2.381596 -1.387119 -14.240541 -6.310378 -0.639889 -26.92905 -3.80964 -4.168266 -49.752686 -3.994562 -13.706791 -7.363724 -3.713228 18.128128 -14.035946 -3.219604 0.006256 -18.768486 -0.009121 -0.427756 -8.440878 2.548452 -0.008924 0.006192 -0.000175 -15.928852 -20.092419 -5.445481 30.422386 -7.172719 1.716529 -0.005136 -8.169184 0.01151 -1.848256 -22.892521 -6.176554 0.000168 0.003733 0.00904 -178.508041 -2.415788 -5.493443 7.115726 -0.012566 0.273924 -76.677002 3.244149 -6.073515 -4.816228 1.526958 2.149796 -1.000539 -0.000388 -0.000372 -2.415433 -4.296535 6.339803 15.036378 -0.056369 0.095034 -80.320068 -4.922972 -7.719466 -4.682766 0.740217 1.692741 -0.99857 0.000183 -0.000231 
0.0 0.0 0.0 0.0 -0.0 0.0 0.065592 100.16346 -0.035429 91.484314 1.303837 89.788147 -6.693927 0.15754 -0.065901 -13.448396 -0.669814 -0.396492 21.780899 -0.832308 -2.561742 12.908597 -3.15789 2.415892 -2.521274 -0.598881 -0.533463 -23.760328 1.377358 -3.555672 0.000278 -6.2e-05 0.00079 -0.122981 0.026478 0.133729 -0.049783 0.098571 0.131423 -0.034271 -0.052767 0.153388 -118.410103 -69.98835 134.913101 39.298618 -48.701214 13.178914 48.594215 0.669834 0.354356 -2.94381 1.154876 5.829681 17.632696 -26.267796 52.413132 -19.469656 -14.390867 29.419203 0.004986 -8.772418 -0.016829 15.763903 -18.258202 6.241731 -0.609487 -1.787611 -3.92654 -4.812765 -11.063101 -2.915551 -0.004027 -20.998291 -0.007081 -4.979846 -25.090012 -4.061535 -0.00528 0.003001 -0.011154 -10.643228 -5.694019 -3.569831 10.58917 -17.920067 -3.125931 -0.000902 -13.827386 -0.006225 -0.49047 -31.209902 -4.065598 -11.941586 -59.508797 8.004928 -13.998031 -7.163781 -2.886953 13.786758 -8.403549 -3.214488 0.353767 -34.24649 0.742031 -0.953901 -17.733692 2.602932 -0.010279 -0.005207 -0.003717 -17.335569 -20.104856 -4.228422 21.745974 -1.639216 3.880973 0.002113 -6.340168 -0.002273 -1.688655 -22.604277 -6.230958 -0.011422 0.003644 0.007711 67.611412 -76.029533 127.996315 59.001984 -58.824963 7.612235 22.307314 -0.272246 -0.003979 -0.68866 -1.677543 2.70059 22.157856 -20.311338 49.82695 -16.645418 -16.702217 28.401873 0.002216 -12.669738 0.005442 16.410704 -17.903406 2.330282 -0.101058 -1.505175 -4.268916 -5.039634 -5.615278 -2.934584 0.004435 -11.008814 0.001159 -6.101534 -15.878124 -3.824987 -0.002095 0.005553 0.000676 -10.266335 -5.672007 -4.324689 10.999373 -11.285334 -2.377204 -1.390808 -14.221233 -6.299349 -0.632654 -26.882477 -3.807932 -4.072599 -49.592003 -4.172918 -13.686378 -7.350638 -3.700979 18.094343 -14.017017 -3.231347 -0.01291 -18.752203 -0.008137 -0.431537 -8.434487 2.553481 -0.00483 0.007509 -0.01309 -15.919175 -20.07823 -5.455741 30.391903 -7.166426 1.731168 -0.004349 -8.161992 0.004429 -1.877419 -22.846069 -6.150408 0.000953 0.00472 0.009931 -178.229401 -2.345587 -5.517253 6.580014 -0.006673 0.289614 -76.207138 3.094405 -6.038341 -4.82338 1.527142 2.15432 -0.996959 -0.000491 -0.000379 -2.357575 -4.342485 6.253685 14.859264 -0.042924 0.068715 -80.302391 -4.733034 -7.700963 -4.887912 0.723674 1.682559 -1.001696 3.8e-05 -0.000102 
0.0 0.0 0.0 0.0 -0.0 0.0 0.079364 100.183022 0.005049 91.498985 1.275669 89.805435 -6.754223 0.147015 -0.078264 -13.486801 -0.647772 -0.337103 21.77944 -0.768878 -2.466803 12.923158 -3.350304 2.455581 -2.533583 -0.636629 -0.501356 -23.825954 1.426726 -3.571142 0.003153 -0.000218 -0.000916 -0.116621 0.030565 0.138919 -0.063094 0.093373 0.125808 -0.030649 -0.044377 0.156858 -117.990753 -70.030937 134.279434 37.44582 -47.187595 12.228167 56.190388 0.890176 0.38067 -3.025238 0.486244 5.724833 17.748821 -26.314108 52.422966 -19.433199 -14.38235 29.344631 0.001463 -8.775424 -0.016026 15.953821 -18.312515 6.246371 -0.617632 -1.800217 -3.882803 -4.809757 -11.062281 -2.935969 0.026794 -20.982311 -0.014063 -5.027798 -25.032047 -4.050905 0.004354 -0.009692 0.000293 -10.660429 -5.70772 -3.568063 10.590443 -17.940411 -3.092699 0.000258 -13.830348 -0.015617 -0.508101 -31.224483 -4.037041 -12.259112 -59.889027 8.30833 -14.008308 -7.155801 -2.871753 13.783632 -8.417518 -3.219445 0.341904 -34.253727 0.804705 -0.972937 -17.760441 2.619558 -0.004327 0.004399 -0.008348 -17.366354 -20.115797 -4.213844 21.766481 -1.632794 3.890654 -0.001756 -6.354024 -0.007251 -1.688621 -22.620462 -6.208399 0.010419 0.002296 -0.000717 68.2015 -76.270096 127.96801 58.916904 -58.975063 7.37482 22.387281 -0.203471 0.022636 -0.636477 -1.639576 2.519245 22.180466 -20.38059 49.95047 -16.667969 -16.732105 28.479773 0.006211 -12.68343 -0.001439 16.45005 -18.048923 2.407305 -0.112156 -1.515678 -4.286776 -5.037112 -5.615326 -2.958623 -0.007714 -11.029491 0.01332 -6.119369 -15.92517 -3.839952 -0.000484 0.012977 0.00181 -10.280634 -5.692447 -4.362302 11.013026 -11.297354 -2.362065 -1.39759 -14.266417 -6.290834 -0.637644 -26.959238 -3.869285 -4.013411 -49.828617 -4.241819 -13.701777 -7.37791 -3.729929 18.11351 -14.040252 -3.236737 -0.021892 -18.80018 0.005789 -0.430531 -8.472433 2.557744 0.000454 -0.003822 0.005447 -15.917497 -20.11499 -5.487577 30.393414 -7.172429 1.754215 -0.015904 -8.162202 0.002424 -1.879869 -22.865692 -6.171841 0.001161 -0.013524 -0.000861 -178.081757 -2.299681 -5.460139 6.265697 0.011059 0.299973 -76.05899 2.990456 -6.058923 -4.831969 1.519324 2.150877 -1.003282 -0.000533 -0.000883 -2.252861 -4.367997 6.268886 14.642765 -0.059336 0.062808 -80.194374 -4.710236 -7.746594 -5.009188 0.748016 1.681769 -0.997495 3.2e-05 0.000144 
0.0 0.0 0.0 0.0 -0.0 0.0 0.130629 100.185287 0.063268 91.482925 1.2394 89.774544 -6.794949 0.148111 -0.062885 -13.544182 -0.628618 -0.31415 21.722734 -0.722963 -2.354012 12.970392 -3.605314 2.468407 -2.543347 -0.657327 -0.382754 -23.664879 1.487999 -3.638462 0.003418 0.000466 4.6e-05 -0.109935 0.030789 0.144112 -0.063871 0.087217 0.137097 -0.057339 -0.033862 0.158981 -117.148827 -69.886719 133.05394 35.758381 -45.237926 10.709665 65.046211 0.845867 0.286999 -2.950122 -0.48 4.763998 17.668558 -26.284946 52.462769 -19.458906 -14.394176 29.407261 0.004186 -8.781604 0.002748 16.155685 -18.333529 6.239215 -0.59704 -1.78108 -3.902766 -4.830958 -11.056184 -2.937045 0.017742 -21.003014 -0.008931 -5.015574 -25.043371 -4.042126 0.007063 -0.012595 -0.002163 -10.632382 -5.688815 -3.57687 10.547791 -17.914154 -3.11259 0.001423 -13.824554 -0.007474 -0.469776 -31.197962 -4.061079 -12.386944 -60.076828 8.378214 -13.988652 -7.147498 -2.893393 13.774821 -8.417328 -3.209655 0.361438 -34.237556 0.744507 -0.937871 -17.74995 2.616471 -0.000266 0.00543 -0.000579 -17.364508 -20.122898 -4.226528 21.762945 -1.632867 3.892591 0.002249 -6.345207 -0.007824 -1.716043 -22.598789 -6.195879 0.002052 0.003489 0.000128 68.394363 -76.275917 127.656563 58.771641 -59.043659 7.094095 22.348047 -0.172139 0.061761 -0.45127 -1.514685 2.236608 22.196787 -20.380165 49.958675 -16.673637 -16.751841 28.481007 0.012164 -12.694561 -0.015716 16.505983 -18.218521 2.426088 -0.10851 -1.501242 -4.283369 -5.041335 -5.62064 -2.951166 -0.0056 -11.029484 0.019955 -6.108955 -15.899043 -3.832562 -0.000655 -0.005655 -0.001685 -10.297256 -5.685993 -4.335226 11.035956 -11.301997 -2.367167 -1.383696 -14.241688 -6.331842 -0.666673 -26.92605 -3.81233 -4.130672 -49.674957 -4.193466 -13.72032 -7.374368 -3.711726 18.131859 -14.028126 -3.247729 -0.036431 -18.78796 0.026126 -0.413751 -8.468339 2.565825 -0.014084 0.006826 -0.009235 -15.938901 -20.112551 -5.46153 30.396973 -7.16913 1.759754 -0.010322 -8.157784 -0.003764 -1.881729 -22.887339 -6.165731 0.0 0.004505 0.009385 -178.108307 -2.315549 -5.402301 6.322188 0.021334 0.290893 -76.175941 2.85294 -6.133142 -4.790105 1.522783 2.155828 -0.996845 0.000831 0.000125 -2.221635 -4.451324 6.330646 14.541908 -0.061737 0.051047 -80.122482 -4.654069 -7.828402 -5.062548 0.786677 1.688828 -0.990882 -9.2e-05 -0.000231 
